<svg version="1.0" xmlns="http://www.w3.org/2000/svg" viewBox="0 0 700 513"><path d="M20.1 4.1c-4.1.5-8.6 1.6-10 2.6L7.5 8.4l5.5 1.7c3 1 6.7 1.8 8.1 1.8 2.9.1 20.1 5.5 19.5 6.2-.2.2 1.1.5 3 .6 1.9.1 10.7 3 19.6 6.5 17.8 7 22.2 10 23.3 16.1 1.2 6.1.5 6.7-8.2 6.9l-7.8.1 5.5.8c4 .5 2.3.6-6.3.5-7-.1-11.2.1-10.5.7.8.5-.6.6-3.4.2-5.1-.7-13.5.5-27.8 4-14.8 3.6-20.7 5.5-22 7-1.8 2.2 5.9 2.8 26.8 2.3l18.5-.5 6.1 2.7c5.5 2.6 16.6 10.9 17.4 13.1.2.5.8.7 1.3.3.5-.3.9.2.9 1 0 .9.9 1.6 2 1.6s2 .6 2 1.3c0 .7.9 3.2 2 5.5 1.2 2.4 1.8 4.8 1.4 5.4-.4.6-.8 2.2-1 3.4-.2 1.9.1 2.2 1.4 1.5 1-.5 3.5-1.1 5.7-1.5l4-.7-2.7 1.8c-2.7 1.7-3.7 3.3-2 3.3.5 0 1.6-.6 2.6-1.3 1.8-1.3 6.6-1.2 6.6.2 0 .3-.7 1.5-1.5 2.5-3 4-1.6 4.5 4.1 1.5 6.7-3.5 7.4-3.5 7.4-.8 0 1.5.4 1.9 1.6 1.5 1.2-.5 1.5-.2.9 1.1-2 5.1-2 4.9-.2 3.4.9-.7 1.7-1.9 1.7-2.6 0-1.6 3-2.4 5.5-1.5 1.8.7 1.8.9-.7 1.9-1.6.6-2.8 1.3-2.8 1.7 0 .3.7.4 1.5 0 1.9-.7 2 .8.1 2.3-.8.7-1.3 2.3-1.1 3.7.3 2.9 1.5 4.5 1.5 2.1 0-1 .5-1.7 1-1.7 1.5 0 1.1 4.2-.5 6.4-2.1 2.7-2 6 .1 5.2 1.2-.5 1.5-.2 1 .9-.3 1-.2 1.3.5.9.6-.3 2.2.5 3.6 1.7 2.4 2.3 2.5 2.3 1.5.3-1.5-2.9-3.5-11.4-3.3-14.3.1-3.2 3.1-6.6 4.2-4.9.6.9 1.1.9 2.3-.1 1.4-1.2 1.6-1 1.6 1.2 0 1.4-.9 4.6-1.9 7-1.1 2.5-1.8 6-1.6 7.9.2 1.8.4 4.8.4 6.6.1 3.6 1.9 3.9 3.8.7.7-1.3.8-2.6.1-3.8-.5-1-.8-2.8-.5-4 .3-1.9.5-1.7 1.5 1.3l1.2 3.5-.3-3.2c-.2-1.8 0-3 .4-2.7.4.2.9-.2 1.2-.8.3-.7.4.8.2 3.4-.1 2.6.2 4.5.6 4.2.5-.3.9-1.2.9-2s.5-1.2 1.1-.8c.6.3.8 1.5.6 2.6-.7 2.5 2.2 10.8 3.9 11.5.8.3 1.4.9 1.4 1.4 0 .4 1.3 3.1 3 5.8 1.6 2.8 3.4 6.8 4 9 1.1 4 2.9 6.4 3.1 3.9 0-.7.4-.4.9.7.8 1.8 1 1.7 2.1-1.3 1.6-3.8 2.9-4.2 2.9-.9 0 3.2 1 4 2.6 1.9 1.2-1.5 1.3-1.4 1.5 1.3.1 3 .1 3 .9.5 1.2-3.6 1.1-.2-.1 4.9-1.3 5.8-.6 8 2 5.7.9-.9 2.1-1.3 2.4-.9.4.3.7-.5.7-1.8s.3-3.4.6-4.6c.9-3.3 3-.7 3.9 4.8.8 5.3 2.5 10.9 3.9 12.7.8 1.1 1.1 1.1 1.6-.4.5-1.3 1.1-.8 2.8 2.5 1.2 2.3 2.2 5 2.2 6s.6 3.1 1.4 4.7c.8 1.6 2 5.8 2.7 9.4.8 3.6 1.7 6.8 2.2 7.1.5.4.7 1.1.3 1.7-.3.5-.3 2.5.2 4.3.7 3.4.7 3.3 1.3-1.6.5-3.6.6-2.7.4 3.3-.2 4.5.1 8.4.5 8.7.5.3 1.2 4 1.6 8.3.5 5.4.9 6.9 1.4 5.2.6-2.1.8-1.7 1.8 2.8.7 2.9 1.2 6.1 1.3 7 0 1.4.2 1.3.8-.3.6-1.5 1-.4 1.6 4 .7 5.6.8 5.8 2 3.5.7-1.4 1.6-4.4 2-6.8 1.2-7.2 2.3-4.7 3 7 .7 11.9 2.2 19.9 3.4 18 1.1-1.7 2.7 0 4.1 4.3 2.2 6.9 3.1 8.5 2.7 4.7-.6-5.1 1.1-3.7 1.8 1.6 1 7 1.7 8.2 2.5 4.4.4-1.8 1-3.5 1.2-3.8.3-.2 1.5 2.3 2.7 5.6 2.5 6.8 3.6 7.8 2.7 2.2-.4-2.3-.3-3.2.2-2.2.5.8 1.2 3.9 1.6 6.8.4 2.9 1 6 1.3 6.9.6 1.5.7 1.4 1.3-.2.5-1.4.9-.2 1.5 3.5.5 3.3 1 4.6 1.2 3.2.6-3.3 1.8-2.7 3.1 1.6.6 2 1.8 4.6 2.6 5.7 1.4 1.9 1.5 1.5 1.6-4 0-5.9 0-5.9 1.7-3.5 1 1.4 2.4 3.2 3.2 4.2 2.1 2.4 4 8.6 4.7 15.1.4 3.1 1.1 5.7 1.7 5.7.5 0 .7-1.6.4-3.8-.4-2-.2-4.4.3-5.2.7-1.1 1-.6 1.1 2 .1 1.9 0 4.6-.1 5.9-.1 1.4.2 2.1.9 1.7.6-.4 1.1.9 1.3 3.1l.4 3.8 1.1-3.5c.8-2.5 1.1-2.9 1.2-1.4.1 1.2.9 4 1.9 6.2l1.8 4.1 1.2-3.1c.6-1.7.9-3.6.6-4.2-.3-.6.2-.2 1 .8.9 1.1 1.6 2.8 1.6 3.9 0 1 .4 1.6.9 1.3 1.3-.9 3.8 3.5 4.8 8.5l.9 4.4 1.8-2.7c1.2-1.8 1.5-3.4 1-4.5-.6-1.4-.9-1-1.2 1.7l-.4 3.5-1.4-5c-.7-2.8-1.3-6.3-1.4-7.8 0-2.6.2-2.8 3.7-2.5 4.5.4 5.3 2.5 5.4 14.5 0 4.6.4 8.3.8 8.3 1 0 2.1-8.4 2.1-15.7 0-5.2 1.3-7.7 2.4-4.7.3.8 1 1.2 1.6.9.6-.3 1.3.1 1.6.9.4 1.1 1.4 1.4 3 1 1.3-.3 2.4-.2 2.4.4 0 1.1 3.7 2.5 6.2 2.3.9-.1 2 .3 2.4 1 .4.8 1.1.4 2-1.2 1.2-2.3 1.3-2.3 2-.4 1.6 4.1 2.8 4.4 4.2 1.1 1-2.4 1.5-2.8 2.2-1.6.8 1.3 1 1.2 1-.2 0-2.6 1.9-3.2 4-1.3 1.4 1.3 1.9 1.3 2.3.3.4-1 .8-1 1.6.2.6.8 1.1 1 1.1.5 0-.6.7-.1 1.6 1 1.5 2 1.5 2 2-.1.3-1.1 1.4-2.5 2.5-3.2 1.6-1.1 2.2-.8 4.2 2.5 3.9 6.3 4.3 8.3 8.8 42.3.6 4.1 1.7 8.5 2.5 9.7 2.1 3.4 1.8 4.6-3.1 11-3.6 4.6-17.6 24.4-25.8 36.7-1.5 2.2-7 9.7-11.1 15-1.6 2.2-2.4 3.6-1.8 3.2.7-.4 1-.2.7.6-.3.7-1.5 1.8-2.8 2.3-1.2.6-2.9 2.4-3.7 4-2.2 4.5-10.9 12.2-11.9 10.6-.6-.9-1-.6-1.4.9-.4 1.6-1.1 2.1-2.2 1.6-.9-.3-1.3-.2-1 .3.3.5.1 1.2-.5 1.6-1.5.9-1.2-2.6.4-4.4.8-.9 1.8-2.8 2.1-4.4.7-2.5.5-2.7-2.1-2.6-5.5.2-7.5 1.3-9.3 5.2-1 2-2 3.4-2.4 3.1-.4-.4.2-2.1 1.3-3.9 2-3.2 1.8-4.5-.7-4.5-.7 0-1.3 1.1-1.3 2.4 0 2.5-1.2 4-2.4 2.9-.3-.3-.1-1.2.5-2 1.7-1.9-6.1-1.8-8.7.2-1.8 1.5-1.7 1.6 1.3 1 3.8-.7 4.7.4 3.7 4.8-.6 3-.7 3.1-1.5.9-.7-1.9-1.6-2.2-5.9-2.2-3.7 0-5.7.5-7.2 2-1.4 1.2-2.5 1.7-3.1 1.1-.5-.5-1.6-.7-2.3-.4-1.7.6-1.8 5-.2 5.5.7.3.2.7-1.1 1.1-2.2.5-2.3.3-1.8-2.8.6-3.7-.4-4.5-5.1-4.5-4.1.1-11.4 4.2-12.3 7-.8 2.3-.6 2.2 1.9-.7 2.5-2.9 3.3-3.2 7.6-2.9 4.9.3 6.9 1.8 6.1 4.7-1 3.2 1.9 5.2 8.4 5.7 5.7.4 6.1.3 7-1.9.6-1.6 1-1.8 1-.8.1.9.8 1.9 1.6 2.3 1.1.4 1.5-.2 1.5-2.7 0-1.8.5-3.9 1.1-4.7.7-1.1.8-.4.4 2.6l-.6 4.2 4 .4c3.4.3 4.1 0 4.4-1.7.3-1.4.5-1.2.6.7.1 3.1-.3 3 13.4 2.8 9.6-.2 10.7-.5 10.7-3.6 0-1.3.6-2.4 1.3-2.4.7 0 2.6-1.4 4.3-3.1 2.8-3 3-3.1 9.8-2.4 3.8.3 8 1.1 9.4 1.6 1.5.6 6.2 1.1 10.5 1.3 7.8.2 9.6 1 9.7 4.3 0 .9 1.8 1.3 5.5 1.3 4.7 0 5.5-.3 5.5-1.8 0-1 .3-2.2.8-2.6.4-.4.7-2.4.7-4.4 0-3.1.4-3.8 2.8-4.6 2.4-.9 3.1-.7 4.3.8.7 1 1.5 2.3 1.6 2.8.2.5 1.9 1.1 3.8 1.4 7 .9 8.1 1.5 9.4 4.6.8 1.8 1.6 2.6 2 2 .4-.6-.2-3-1.4-5.4-2.5-5.2-2.7-13.3-.4-14.2 5.5-2.1 11.3.2 17.2 7 3.8 4.3 4.1 4.4 3.3 1.6-1.4-4.7-4.1-8.2-8.2-10.2-2.1-1.1-4-2.4-4.4-3-1.8-2.9-13.2.6-12.1 3.8.4.9-.3.6-1.4-.8-1.1-1.4-2-1.9-2-1.2s-.5 1-1 .7c-.6-.4-1.6-.2-2.3.3-2.9 2.3-20.9-2.1-23.1-5.7-1.4-2.2 14-32.7 26.9-53.1 5.4-8.7 8.3-12.6 13.2-18.2 2.9-3.2 5.3-6 5.3-6.3 0-.2 1.1-5.5 2.5-11.9L390 378l-3.4-10.2c-1.8-5.7-3.6-13.6-4-17.6-.6-7-.6-7.2 1.4-6.2 1.1.6 2.4 1.9 3 3 1.5 2.9 3 2.5 3-.8 0-2.6.2-2.7 4.8-2.7 2.7 0 5.6.6 6.4 1.3 1.3 1 1.7 1 2.2-.4.4-1.1 1.3-1.4 2.8-1.1 1.3.4 2.6 0 3.2-.9 1-1.2 1.4-1.2 3.6.3 1.9 1.3 4.1 1.7 9.2 1.4 11.5-.5 13.8.3 17.6 6 1.7 2.7 3.8 4.9 4.6 4.9 2 0 14.1 14.1 16.3 19 .3.8 2.7 3.7 5.1 6.5 2.5 2.7 5.1 6.3 5.8 8 .7 1.6 2.1 3.9 3.1 5.1 2.3 2.5 3.5 4.6 6.8 10.9 1.4 2.7 3.2 6.1 4 7.5.8 1.4 1.5 4.3 1.5 6.5s1 5.8 2.1 8c1.2 2.2 2.5 5.1 2.8 6.4.6 2.2.8 2.3 2.4.7 2.3-2.3 1.5-9.3-1.8-17.1-1.9-4.3-4.8-21.4-4.3-25.5.3-3 .6-3.5 2.7-3.2 2.3.4 13.7 9.7 24.8 20.3 2.9 2.8 6.4 5.2 8.2 5.5 1.7.4 3.6 1.3 4.2 2 .6.8 1.7 1.4 2.4 1.4s1.8.7 2.5 1.5c1.5 1.8 3 2 3 .3 0-1.1-1.9-4.3-7.1-11.9-1-1.5-1.8-3.5-1.8-4.5 0-1.1-.3-3.3-.6-4.9l-.7-3 2.7 3.2c1.4 1.8 3.5 3.3 4.5 3.3 2.1 0 6 4.5 6 6.9 0 .9 2.2 4.3 4.8 7.6 4.8 5.9 5.5 7.2 10.2 16.9 1.4 2.7 4.6 7.6 7.3 11 5.3 6.6 7.7 10.7 7.7 13 0 .8.6 1.6 1.3 1.8 2.8.7 10.4 10.5 11.7 15.3.8 2.8 2 5 3 5.2.9.2 2.4 2 3.5 3.9 1 1.9 2.4 3.4 3.1 3.4.7 0 1.5 1.4 1.9 3 .4 1.7 1.1 2.8 1.6 2.4.5-.3.9.1.9.9s1.3 2.8 2.8 4.5c3.8 4 10.4 5.1 15.7 2.6l3.7-1.7 3.2 3.5c4.5 5.1 10.4 7.1 16.4 5.7 9.8-2.4 12-5.3 8.7-11.5-.8-1.6-1.5-3.6-1.5-4.4 0-.8-.9-2.1-2-2.8-1.1-.7-2-1.7-2-2.2 0-.5-1.8-3.3-4.1-6.2-12.9-16.8-17.9-24-17.9-26 0-.6-1.5-2.7-3.3-4.7-1.8-2-7.6-9.7-12.9-17.2-11.8-16.4-14.3-21.9-9.5-20.5 1.2.4 4.9 1.1 8.2 1.6 4.2.6 10.3 3 20 7.9 7.7 3.8 18.7 9.3 24.5 12.1 5.8 2.8 11.6 6.2 13.1 7.6 2.6 2.5 4.9 3.1 4.9 1.4 0-.6-2.9-3.8-6.5-7.3s-6.5-6.8-6.5-7.4c0-.6-1.3-1.6-3-2.3-2.6-1.1-3-1.8-3-5 0-2.6-.8-4.8-2.8-7.1-4.6-5.7-16.3-16.8-18.3-17.4-1.7-.6-3.6-3.8-5.3-8.8-.3-.9-1.4-1.7-2.5-1.7-2.5 0-6.9-4.1-6.4-5.8.3-.7.1-1.2-.4-1.1-.4.1-1.5.1-2.4 0-2-.1-2-3.8.1-5.1 1.1-.7 1.1-1 .2-1-.7 0-1-.5-.6-1.1.3-.6-.7-2.9-2.3-5.2-4.9-6.8-3-7.5 8.6-3.3 2.4.9 5.6 1.6 7 1.6 4.4 0 12.3 4.7 15.4 9.1 1.5 2.2 3.1 3.7 3.6 3.4.5-.3 3 1.1 5.5 3 2.6 1.9 4.9 3.5 5.2 3.5.3 0 3.6 2.6 7.2 5.8 8.6 7.5 16.8 13.5 18.6 13.8 2.6.4 2.5-2.2-.3-5.2-4.3-4.5-2.7-6 2.5-2.3 2.4 1.8 5.2 4 6.3 5 2.1 2 3.6 2.5 2.7 1-.3-.5.3-1.1 1.4-1.4 1.1-.3 2 0 2 .6s.3.7.6.4c1-1-1.8-3.9-3.2-3.3-.7.3-1.1 0-.8-.7.2-.7-2.7-3.7-6.7-6.7-4.1-3.1-10.3-9.4-14.6-14.7-4.1-5.1-7.9-9.3-8.3-9.3-.5 0-3-1.8-5.6-4.1-2.6-2.2-5.7-4.5-6.8-5-3.5-1.6-15.2-9.6-33-22.6-9.4-6.9-14.1-9.7-19-11.3-3.1-1-3.6-1.6-3.6-4.3 0-1.8-.3-4.9-.7-7.1-.6-3.6-.5-3.8 1.5-2.7 1.1.6 3 1.1 4.1 1.1 2.9 0 20.4 8.5 23.7 11.5 3.1 2.9 4.6 3.1 6.3 1.1 2-2.4-.3-5.1-8.9-10.6-4.3-2.8-8.2-5.9-8.4-6.8-.4-1.2-2.5-2.1-6.6-2.9-5-.9-6.8-1.8-10-5.2-2.2-2.3-4-4.7-4.1-5.4 0-.6-2.5-2.8-5.5-4.7-6.7-4.4-20.2-16.1-20.3-17.7-.1-.6-1.6-2.1-3.5-3.2-5.2-3.2-6.3-7.9-1.2-5.2 1.3.8 3 1.1 3.7.9 2-.7-8.4-8.1-17.7-12.7-8.2-4-9.4-5.3-9.4-10.9 0-1.9.4-2.2 2.8-1.6 1.5.4 5 2 7.8 3.6 2.8 1.5 5.4 2.8 5.9 2.8 1 0-10.7-8.9-11.7-9-1.6 0-11.7-7.8-14.8-11.4-1.9-2.1-9.8-8-17.5-13.1-16.8-11-17.7-11.5-20.9-11.5-1.4 0-4.5-1.3-6.8-2.9-2.4-1.6-4.6-2.7-5-2.5-.4.3-1.4-.9-2.2-2.5-.9-1.6-2.6-3.3-3.8-3.6-2.5-.9-11.8-7.4-11.8-8.3 0-.4-2.1-1.7-4.7-2.9-5.2-2.4-25.5-21.7-42.9-40.7-5.4-5.9-11.1-11.4-12.6-12.2-1.5-.8-2.9-2.2-3.2-3.1-.3-1-2.2-2.7-4.3-3.8-3.7-2-5.5-4.5-3.2-4.5.6 0 3.4 1.3 6 3 6.6 4.1 6.2 2-.7-3.4-8.2-6.4-20.7-12.4-28.4-13.7-3.6-.6-8.5-2-10.9-3-2.4-1.1-5.5-1.9-6.9-1.7-1.4.2-2.7-.2-2.9-.8-.4-1.1 4.1-2.6 12.2-4 3.6-.7 3.7-.8 1.5-1.4-1.4-.3-4.2-1.4-6.2-2.3-2.1-.9-4.4-1.7-5.2-1.7-.8 0-1.7-.4-2-.9-.5-.8-8.7-3.4-11.2-3.6-.6 0-1.8-.5-2.5-1.2-.8-.6-3.1-1.4-5.1-1.8-2.1-.4-3.5-1.1-3.3-1.6.3-.5-.7-1.1-2.2-1.4-1.5-.3-4.9-1.3-7.6-2.1-2.6-.9-5.4-1.3-6.2-1-.8.3-1.5.1-1.5-.4 0-.4-1.3-1.1-3-1.5-4.2-.9-4.7-2.5-.8-2.6l3.3-.1-3.1-1.3c-1.7-.8-6.9-1.7-11.5-2-4.6-.4-8.7-.9-9.2-1.2-1.5-.9.4-2 3-1.7 1.7.2 2 .1.8-.2-1.1-.4-2.7-1.2-3.5-1.9-.8-.7-3.5-1.6-6-1.9-2.5-.4-7-2-10-3.6s-7.5-3.8-9.9-4.9c-2.4-1.2-5.5-3-7-4-2.2-1.6-11-5.4-36.6-15.8-3.3-1.3-8.2-3.9-11-5.8-11.8-8-39.4-13.8-66.5-13.9-16.3-.1-21.3.4-32.7 3.4-2.7.6-3.3.5-3.3-.7 0-1-.6-1.3-1.6-.9-.9.3-2.2.6-3 .6-.9 0-1.3.4-1 .8.5.9-17.6-1.1-29-3.2-10.6-2-29-2.7-38.3-1.5zM269.5 55c.3.5-.1 1-.9 1s-1.8-.5-2.1-1c-.3-.6.1-1 .9-1s1.8.4 2.1 1zm18.8 12.7c-.7.2-1.9.2-2.5 0-.7-.3-.2-.5 1.2-.5s1.9.2 1.3.5zM303.5 78c.8 1.3-2.5 1.3-4.5 0-1.2-.8-.9-1 1.2-1 1.5 0 3 .4 3.3 1zm-31.8 5.6c-.3.3-1.2.4-1.9.1-.8-.3-.5-.6.6-.6 1.1-.1 1.7.2 1.3.5zm13.8 3.4c.3.6-.1.7-.9.4-1.8-.7-2.1-1.4-.7-1.4.6 0 1.3.4 1.6 1zm48.9 2.6c2.3.9 2 2.3-.4 1.7-1.1-.3-2-.9-2-1.4 0-1.1.3-1.1 2.4-.3zM285 92.5c1.3 1.4 2.1 2.5 1.8 2.5-.2 0-1.5-1.1-2.8-2.5-1.3-1.4-2.1-2.5-1.8-2.5.2 0 1.5 1.1 2.8 2.5zm21 17.5c0 .5-.4 1-1 1-.5 0-1-.5-1-1 0-.6.5-1 1-1 .6 0 1 .4 1 1zm53.2 5c2 1.5 4.5 6 3.4 6-.2 0-1.9-1.8-4-4-3.9-4.2-3.6-5.3.6-2zm-10.1 4.7c1.3 1.6 1.2 1.7-.3.4-1.7-1.3-2.2-2.1-1.4-2.1.2 0 1 .8 1.7 1.7zm-214.4 2.5c-.3.7-.5.2-.5-1.2s.2-1.9.5-1.3c.2.7.2 1.9 0 2.5zm-3.7-1.8c0 .3-.4.8-1 1.1-.5.3-1 .1-1-.4 0-.6.5-1.1 1-1.1.6 0 1 .2 1 .4zm245.4 1.2c.8.3 3.2 2.7 5.3 5.2l3.8 4.7-4-3.1c-4.2-3.4-8.2-7.4-7.2-7.4.3 0 1.2.3 2.1.6zM209.7 275.2c-.3.7-.5.2-.5-1.2s.2-1.9.5-1.3c.2.7.2 1.9 0 2.5zM584 307.7c0 2.2-4.8 1.4-6.4-.9-2.4-3.4-2-3.8 2.4-2 2.2.9 4 2.3 4 2.9zM338.6 452c-2.5 3.9-4.6 7.4-4.6 7.8 0 .4-2.3 4.1-5 8.1-2.8 4.1-5 8.2-5 9 0 .8-.3 1.1-.7.8-.3-.4-1.5.8-2.7 2.6-1.7 2.7-2.1 2.9-2.4 1.3-.2-1 0-2.1.5-2.5 1-.7 3-3.9 4.2-6.7 1-2.3 15.5-23.9 17.9-26.7 3.3-3.8 2.1-.5-2.2 6.3zm272.1 29.5c.7 1.4.6 2.7-.2 4.3-1.2 2.2-1.3 2.2-4.2-2.5-1.7-2.6-3.3-6.2-3.6-7.9l-.6-3.2 3.8 3.7c2.1 2 4.3 4.5 4.8 5.6zM334 491.6c0 1.6-.9 1.7-2.9.5-.8-.5-1.1-1.6-.7-2.6.5-1.4.9-1.5 2.1-.5.8.7 1.5 1.9 1.5 2.6zm15.5 3.9l.6 3-2-3.5c-2.4-4.1-2.7-6-.7-4 .8.8 1.7 2.8 2.1 4.5zm11.5-3.4c0 .6-.4.7-1 .4-.5-.3-1-1.1-1-1.6 0-.6.5-.7 1-.4.6.3 1 1.1 1 1.6zm-19.3 1.1c-.3.8-.6.5-.6-.6-.1-1.1.2-1.7.5-1.3.3.3.4 1.2.1 1.9zm25.5 1.3c1.2 1.6.9 2.8-.4 1.7-.7-.6-1.7-1-2.3-.9-.5.1-1.2-.9-1.3-2.3-.4-2.2-.2-2.3 1.5-1 1 .8 2.1 1.9 2.5 2.5zm-88.5 2.7c-.3.8-.6.5-.6-.6-.1-1.1.2-1.7.5-1.3.3.3.4 1.2.1 1.9zm-6.7 5c0 3.8-.5 3.4-1.3-1-.4-2.1-.3-3.1.3-2.7.6.3 1 2 1 3.7z"/><path d="M104.3 105c-2.5 1-4.8 4.9-5.7 10-.7 3.3-.6 3.4.9 1.6.8-1.1 1.5-2.8 1.5-3.7 0-1 .6-2.2 1.4-2.6.8-.4 1.6-1.5 1.8-2.3.2-.8 1-2 1.8-2.7 1.8-1.4 1.3-1.5-1.7-.3zM111.1 116.6c-1.2 1.5-2.1 3.2-2.1 3.8.1 1.1 2.4-1.5 4.1-4.7 1.4-2.5.3-2.1-2 .9zM122.7 114.7c-.4.3-.7 1.1-.7 1.7 0 .6.5.5 1.2-.2.6-.6.9-1.4.7-1.7-.3-.3-.9-.2-1.2.2zM287.8 488.5c-.3 1.4-.2 2.5.2 2.5 1.4 0 3.2-2.9 2.5-4-1.1-1.7-2.2-1.1-2.7 1.5zM292.2 488c0 1.4.2 1.9.5 1.2.2-.6.2-1.8 0-2.5-.3-.6-.5-.1-.5 1.3z"/></svg>