<?xml version="1.0" standalone="no"?>
<!DOCTYPE svg PUBLIC "-//W3C//DTD SVG 20010904//EN"
 "http://www.w3.org/TR/2001/REC-SVG-20010904/DTD/svg10.dtd">
<svg version="1.0" xmlns="http://www.w3.org/2000/svg"
 width="900.000000pt" height="924.000000pt" viewBox="0 0 900.000000 924.000000"
 preserveAspectRatio="xMidYMid meet">
<metadata>
Created by potrace 1.10, written by Peter Selinger 2001-2011
</metadata>
<g transform="translate(0.000000,924.000000) scale(0.100000,-0.100000)"
fill="#000000" stroke="none">
<path d="M223 9173 c-23 -9 -14 -26 55 -98 37 -40 94 -110 127 -156 33 -46 87
-112 119 -147 33 -34 72 -88 88 -120 28 -56 86 -121 222 -251 38 -36 79 -77
90 -90 29 -34 151 -156 211 -212 28 -26 61 -61 74 -78 13 -18 45 -46 71 -64
87 -59 337 -294 324 -305 -4 -4 -9 -1 -11 6 -3 6 -9 12 -14 12 -11 0 -110 60
-239 145 -283 185 -381 252 -390 264 -3 4 -34 27 -70 52 -36 25 -74 52 -85 61
-11 9 -94 72 -185 139 -91 67 -167 125 -170 129 -3 3 -29 23 -59 44 -30 21
-59 43 -65 47 -36 30 -149 110 -194 137 -54 33 -72 39 -72 23 0 -15 322 -338
365 -366 22 -15 75 -59 119 -98 43 -40 90 -79 105 -87 14 -8 57 -40 96 -70 38
-30 88 -68 112 -85 23 -16 86 -64 140 -106 54 -42 109 -79 123 -82 14 -3 48
-26 77 -50 28 -24 73 -56 100 -72 80 -46 172 -145 134 -145 -4 0 -30 12 -57
26 -92 49 -179 96 -189 104 -5 4 -46 27 -90 50 -44 24 -93 52 -110 62 -16 10
-37 21 -45 25 -8 4 -46 26 -85 48 -38 23 -77 44 -85 48 -8 4 -28 16 -45 26
-16 11 -50 31 -75 44 -25 14 -61 34 -80 45 -50 30 -348 177 -395 195 -52 21
-117 26 -122 10 -3 -7 6 -17 19 -23 13 -6 37 -19 53 -30 17 -11 39 -24 50 -30
11 -6 34 -19 50 -30 17 -11 37 -23 45 -27 8 -4 34 -20 56 -35 23 -15 47 -28
53 -28 14 0 109 -51 169 -91 24 -16 45 -29 48 -29 3 0 31 -19 62 -42 63 -47
89 -65 112 -75 8 -3 40 -25 70 -48 30 -23 76 -51 101 -63 52 -25 76 -48 81
-77 6 -35 -36 -29 -117 19 -42 26 -78 46 -81 46 -2 0 -26 14 -52 30 -47 29
-102 40 -102 21 0 -14 354 -334 405 -366 17 -11 55 -38 85 -60 54 -41 171
-112 243 -149 38 -20 48 -42 23 -52 -13 -5 -84 20 -151 53 -45 22 -69 14 -73
-23 -2 -25 9 -49 47 -105 47 -70 214 -249 232 -249 22 0 161 -104 176 -132 30
-56 41 -96 30 -107 -5 -5 -7 -27 -4 -48 29 -191 21 -173 128 -284 78 -80 114
-101 229 -133 36 -10 81 -27 100 -38 19 -10 51 -26 70 -35 53 -23 70 -42 70
-79 0 -34 -25 -74 -46 -74 -20 0 -44 -36 -44 -66 0 -16 12 -47 26 -68 19 -28
25 -46 20 -67 -15 -78 37 -118 193 -144 134 -23 174 -61 156 -144 -6 -27 -1
-40 50 -130 6 -11 16 -25 21 -32 6 -8 19 -50 29 -94 10 -44 27 -90 38 -102 10
-12 58 -38 106 -59 89 -38 141 -69 141 -84 0 -5 -6 -15 -12 -22 -28 -30 -48
-79 -50 -122 -2 -42 1 -49 42 -89 25 -24 54 -59 64 -78 46 -83 120 -139 185
-139 59 0 131 -32 131 -58 0 -10 -7 -40 -16 -65 -19 -57 -12 -74 59 -128 25
-18 58 -53 73 -77 15 -24 53 -65 84 -92 54 -47 57 -53 63 -105 5 -54 7 -57
102 -150 53 -52 103 -95 110 -95 8 0 46 5 84 12 60 10 72 10 93 -4 23 -15 26
-25 31 -107 6 -103 10 -112 68 -166 23 -22 57 -55 75 -72 33 -33 58 -41 69
-23 3 6 13 10 21 10 10 0 14 -12 14 -42 0 -46 11 -66 80 -147 62 -73 71 -77
120 -46 32 20 40 31 40 55 0 33 27 54 50 40 12 -7 12 -22 2 -92 -16 -110 -15
-146 6 -184 21 -38 72 -129 90 -158 24 -40 11 -67 -42 -87 -66 -25 -268 -68
-393 -85 -107 -14 -133 -22 -170 -57 -19 -17 -44 -22 -140 -29 -282 -21 -873
-9 -983 21 -19 5 -88 12 -152 16 -105 6 -119 5 -124 -10 -4 -9 0 -23 9 -32 20
-20 113 -53 149 -53 15 0 45 -6 65 -14 21 -8 51 -17 66 -20 17 -4 25 -11 21
-18 -5 -8 -77 -8 -263 -2 -352 12 -411 11 -428 -12 -8 -11 -13 -48 -13 -101
l0 -84 47 -50 c25 -27 44 -51 41 -54 -2 -3 -46 -6 -97 -8 -127 -5 -148 -33
-57 -77 25 -12 46 -24 46 -26 0 -3 -8 -24 -19 -47 -10 -23 -21 -50 -24 -59 -3
-10 -19 -20 -34 -23 -60 -13 -161 -58 -200 -88 -23 -19 -30 -42 -15 -51 5 -3
68 0 142 5 l134 10 75 -32 c68 -29 181 -95 181 -105 0 -6 -225 -114 -238 -114
-7 0 -12 -3 -12 -8 0 -4 -24 -18 -53 -32 -28 -13 -58 -30 -65 -37 -7 -7 -17
-13 -22 -13 -5 0 -32 -27 -60 -61 -57 -68 -55 -89 6 -89 18 0 35 -4 38 -9 3
-5 82 -9 176 -9 166 -1 214 -6 208 -21 -2 -5 -25 -27 -53 -51 -82 -70 -223
-206 -260 -250 -51 -61 -42 -70 77 -70 66 0 109 5 126 14 41 21 131 61 192 86
30 12 96 41 146 66 82 39 98 44 163 44 39 0 71 -4 71 -9 0 -6 -51 -55 -112
-109 -215 -190 -310 -287 -306 -313 3 -23 5 -24 107 -24 96 0 104 -1 111 -21
12 -30 27 -33 100 -18 98 20 216 73 374 166 54 33 103 57 110 55 6 -2 11 -24
11 -48 l0 -44 57 1 c44 1 67 8 107 33 28 17 54 31 56 31 3 0 24 12 48 27 58
38 79 51 97 60 8 4 50 33 93 65 43 32 86 58 95 58 8 0 23 6 31 13 21 18 101
47 129 47 12 0 41 12 65 27 23 15 57 36 76 46 41 23 131 98 131 111 0 18 61
84 82 89 70 16 190 68 303 132 33 19 70 39 82 44 11 5 24 15 28 20 9 15 61 14
85 -1 16 -10 24 -10 40 0 30 18 48 15 66 -13 21 -33 69 -33 149 0 33 14 70 25
81 25 20 0 60 -41 77 -80 4 -8 16 -28 27 -45 37 -56 73 -141 90 -215 46 -190
60 -228 99 -268 39 -40 142 -112 161 -112 6 0 36 -17 67 -38 30 -20 62 -41 71
-47 51 -31 266 -208 305 -253 30 -33 18 -61 -43 -103 -30 -21 -62 -39 -71 -39
-31 0 -98 -36 -119 -63 -16 -20 -20 -38 -18 -69 4 -58 24 -59 49 -4 22 50 46
59 83 31 34 -26 82 -19 106 14 20 29 121 91 147 91 27 0 110 -71 152 -129 47
-65 53 -69 119 -70 45 -1 50 7 32 53 -5 14 -16 26 -24 26 -7 0 -19 7 -27 16
-7 8 -30 24 -51 35 -21 11 -38 25 -38 31 0 6 -9 22 -21 34 -12 13 -18 28 -14
34 13 20 55 8 202 -61 35 -16 67 -29 73 -29 6 0 28 -11 48 -25 41 -28 61 -30
108 -13 27 9 37 9 58 -5 35 -23 48 -21 44 6 -2 17 -24 32 -93 66 -49 24 -97
48 -105 52 -8 5 -22 12 -30 15 -8 3 -31 15 -50 25 -82 46 -124 61 -143 50 -14
-9 -24 -6 -52 16 -19 16 -35 31 -35 36 0 4 -12 7 -28 7 -15 0 -38 8 -52 17
-13 9 -47 29 -74 43 -70 36 -231 152 -299 215 -21 19 -42 35 -47 35 -5 0 -25
24 -44 54 -28 40 -36 63 -36 97 0 45 -19 128 -37 164 -5 11 -18 36 -28 55 -66
125 -75 150 -75 215 0 53 3 67 18 72 9 3 25 13 34 20 9 8 60 21 113 29 53 8
106 21 118 28 46 29 82 27 126 -5 22 -17 41 -36 41 -42 0 -7 14 -25 30 -41 16
-16 39 -50 51 -75 51 -107 125 -181 181 -181 14 0 31 -6 37 -14 6 -7 37 -16
69 -20 72 -8 78 -9 247 -36 135 -21 232 -50 247 -74 24 -36 -6 -133 -63 -202
-74 -89 -82 -100 -96 -133 -15 -35 -14 -86 2 -86 5 0 20 19 33 42 23 42 24 43
74 41 42 -2 52 1 69 22 10 14 19 36 19 49 0 13 14 46 30 73 17 26 30 56 30 66
0 30 38 82 60 82 29 0 113 -21 126 -31 6 -5 32 -12 59 -16 l47 -6 -7 32 c-9
43 8 61 59 61 28 0 54 -8 79 -25 30 -21 44 -25 73 -19 28 5 40 2 60 -17 19
-18 24 -19 24 -6 0 8 -6 22 -14 29 -7 8 -17 28 -20 45 -12 55 -86 103 -157
103 -32 0 -53 -8 -89 -35 -50 -37 -71 -45 -50 -20 17 20 7 31 -63 66 -49 25
-69 30 -106 26 -24 -3 -61 1 -80 8 -20 7 -70 16 -111 19 -80 8 -185 28 -261
52 -26 8 -54 14 -62 14 -26 0 -107 120 -107 158 0 7 -17 38 -37 69 -21 31 -43
65 -49 75 -7 11 -17 25 -23 31 -6 6 -11 35 -11 64 0 30 -7 70 -15 90 -27 65
-12 226 31 331 110 262 101 249 268 416 552 555 720 706 942 849 33 21 88 60
123 87 40 31 74 50 90 50 15 0 32 5 39 12 6 6 30 15 54 19 24 4 68 13 98 20
108 22 290 -3 382 -55 26 -14 54 -26 62 -26 8 0 57 -40 108 -88 51 -48 113
-103 138 -122 24 -19 53 -43 63 -53 28 -28 124 -87 142 -87 13 0 15 17 15 104
0 115 -5 137 -26 129 -9 -3 -14 2 -15 13 -1 11 -2 32 -3 48 -1 16 -7 31 -14
34 -7 2 -12 8 -12 13 0 6 -11 35 -25 65 -14 30 -25 58 -25 62 0 5 -15 23 -34
42 -26 26 -33 41 -29 58 6 24 -6 29 -25 10 -9 -9 -12 -9 -12 0 0 7 4 12 10 12
10 0 6 16 -17 68 -9 21 -21 32 -34 32 -16 0 -19 4 -14 21 6 19 4 21 -14 16
-18 -4 -21 -2 -16 14 4 10 2 19 -4 19 -5 0 -23 11 -39 25 -26 21 -30 33 -34
87 -4 49 -9 64 -26 76 -12 8 -22 21 -22 29 0 8 -7 21 -16 30 -8 9 -13 22 -10
29 4 9 -2 14 -15 14 -14 0 -19 5 -16 15 6 15 -22 53 -85 116 -21 21 -38 40
-38 43 0 14 -67 79 -95 93 -16 9 -34 22 -38 29 -4 8 -17 14 -27 14 -11 0 -20
4 -20 9 0 11 -101 61 -122 61 -8 0 -18 4 -24 9 -11 12 -78 30 -159 43 -33 5
-81 14 -106 19 -26 6 -91 12 -144 14 -54 2 -100 7 -104 10 -21 21 3 227 35
302 8 17 14 41 14 53 0 11 7 34 15 50 18 34 35 216 35 372 0 127 -16 251 -37
293 -9 16 -23 44 -31 60 -8 17 -27 48 -42 70 -64 97 -82 150 -90 262 -5 60
-13 121 -19 136 -6 16 -11 45 -11 64 0 20 -6 62 -14 92 -8 31 -21 92 -31 136
-9 44 -22 103 -30 130 -8 28 -16 61 -19 75 -7 36 -26 109 -39 150 -6 19 -14
55 -18 80 -4 25 -11 59 -17 75 -6 17 -18 59 -27 95 -42 164 -76 262 -91 261
-5 0 -12 -20 -16 -43 -4 -24 -11 -65 -17 -93 -14 -73 -12 -218 4 -310 8 -44
15 -95 15 -114 0 -18 6 -54 14 -80 34 -108 46 -160 46 -199 0 -49 -11 -53 -37
-14 -30 46 -39 62 -108 202 -100 203 -150 296 -171 321 -8 8 -14 21 -14 27 0
6 -13 31 -30 55 -16 25 -30 48 -30 51 0 4 -26 51 -58 104 -32 53 -61 104 -65
112 -4 8 -16 29 -27 45 -11 17 -24 39 -30 50 -6 11 -19 34 -30 50 -11 17 -23
37 -27 45 -7 15 -122 171 -133 180 -3 3 -17 21 -30 40 -26 39 -20 32 -149 164
-85 87 -124 111 -105 67 20 -49 47 -124 66 -181 25 -81 149 -380 178 -430 55
-97 216 -431 209 -436 -21 -13 -171 155 -293 329 -162 230 -369 492 -461 583
-81 79 -185 154 -214 154 -18 0 -18 -2 -6 -27 21 -45 60 -132 98 -223 20 -47
52 -114 72 -150 19 -36 37 -72 41 -80 11 -28 45 -95 64 -125 10 -16 28 -46 38
-66 19 -34 116 -172 137 -195 6 -6 20 -24 32 -40 12 -16 42 -54 65 -84 24 -30
52 -67 63 -82 11 -15 48 -59 83 -98 45 -51 62 -78 62 -99 0 -16 7 -34 15 -41
20 -16 20 -54 1 -47 -8 3 -30 9 -50 12 -25 5 -67 36 -158 117 -68 61 -156 140
-197 177 -41 36 -79 71 -85 76 -6 6 -83 76 -171 155 -88 80 -164 150 -170 156
-37 40 -287 245 -315 257 -8 4 -28 16 -45 26 -76 49 -128 72 -138 62 -7 -7 -6
-15 4 -27 13 -16 33 -53 93 -169 71 -138 111 -185 444 -524 142 -144 262 -289
262 -317 0 -18 -40 -18 -77 0 -15 8 -73 36 -128 62 -55 26 -132 67 -171 91
-39 23 -74 43 -79 43 -5 0 -16 6 -24 14 -9 7 -43 28 -76 46 -33 18 -67 38 -75
44 -8 6 -33 21 -55 33 -22 11 -56 30 -75 41 -95 56 -282 146 -340 164 -36 11
-80 26 -98 34 -33 14 -102 19 -102 8 0 -4 12 -21 28 -39 15 -18 50 -61 77 -95
28 -34 59 -66 70 -71 38 -18 66 -37 93 -61 15 -13 46 -36 69 -51 22 -14 56
-41 75 -59 18 -19 72 -69 121 -113 53 -48 87 -86 87 -98 0 -18 -5 -19 -54 -14
-29 3 -75 12 -102 21 -27 8 -74 22 -104 30 -30 9 -77 22 -105 30 -27 8 -85 17
-127 21 -68 6 -79 4 -84 -10 -4 -9 -1 -20 5 -25 38 -23 241 -236 239 -249 -3
-12 -18 -17 -68 -19 -36 -1 -75 -4 -87 -7 -35 -8 -47 -70 -39 -204 7 -119 14
-140 67 -211 15 -19 37 -54 49 -78 12 -23 32 -50 44 -60 41 -33 60 -105 30
-116 -18 -7 -55 10 -67 30 -4 8 -15 14 -22 14 -8 0 -15 4 -15 8 0 5 -8 13 -19
18 -10 5 -32 19 -47 31 -84 64 -164 123 -169 123 -3 0 -18 11 -33 25 -15 14
-43 36 -62 47 -19 12 -69 47 -110 78 -41 31 -93 68 -116 83 -22 14 -49 33 -58
43 -25 25 -301 226 -320 233 -6 2 -46 30 -88 63 -42 32 -80 58 -84 58 -4 0
-15 6 -23 14 -18 16 -97 59 -191 106 -36 18 -72 36 -80 41 -8 5 -24 14 -35 19
-11 6 -33 19 -50 30 -16 11 -39 24 -50 30 -11 6 -33 19 -50 30 -16 11 -39 24
-50 30 -11 6 -33 19 -50 30 -16 11 -39 24 -50 30 -11 6 -32 18 -47 28 -15 9
-57 36 -95 59 -106 65 -273 224 -449 428 -38 44 -72 81 -76 83 -4 2 -17 20
-30 40 -12 20 -41 63 -65 94 -24 31 -43 60 -43 63 0 4 -13 24 -30 45 -16 21
-30 41 -30 44 0 3 -20 35 -44 70 -24 35 -45 68 -47 72 -20 46 -74 114 -91 114
-15 0 -18 -4 -12 -22 25 -85 175 -334 272 -453 37 -46 123 -178 120 -185 -5
-16 -119 68 -230 170 -170 155 -498 485 -578 582 -41 49 -87 104 -102 122 -47
56 -192 235 -233 287 -22 29 -47 59 -56 68 -9 9 -78 99 -154 201 -76 102 -143
188 -149 192 -17 12 -40 4 -44 -14 -2 -10 36 -70 85 -135 48 -65 96 -134 106
-154 10 -19 34 -53 54 -75 19 -21 46 -56 59 -76 13 -21 35 -45 48 -53 14 -9
35 -35 46 -58 21 -39 131 -173 157 -189 6 -5 33 -36 61 -70 27 -35 64 -79 82
-98 18 -19 44 -51 58 -70 15 -19 51 -62 80 -94 29 -32 58 -68 63 -80 13 -29
32 -60 44 -68 5 -4 6 -11 1 -15 -5 -4 -11 -2 -13 5 -3 6 -9 12 -15 12 -12 0
-54 32 -183 140 -280 232 -475 418 -735 700 -74 80 -163 176 -199 213 -36 37
-86 91 -111 119 -52 60 -183 188 -190 187 -3 0 -11 -3 -17 -6z m3807 -2950
c28 -21 50 -41 50 -45 0 -4 6 -8 13 -8 17 -1 73 -48 65 -56 -4 -3 -18 2 -31
12 -14 11 -35 26 -47 34 -13 8 -30 22 -39 31 -9 9 -28 24 -43 34 -25 15 -37
35 -23 35 3 0 28 -17 55 -37z m872 -637 c52 -52 111 -116 129 -143 18 -26 48
-64 66 -83 18 -19 52 -60 75 -91 34 -48 47 -58 79 -63 32 -5 40 -11 45 -34 3
-15 23 -45 44 -67 91 -94 156 -155 166 -155 6 0 17 -13 25 -30 18 -38 124
-147 161 -166 15 -8 28 -18 28 -23 0 -4 21 -30 48 -57 48 -50 89 -98 161 -191
23 -29 49 -53 58 -53 17 0 83 -65 83 -82 0 -23 -34 -19 -60 8 -15 16 -50 49
-79 72 -28 24 -51 47 -51 52 0 18 -154 180 -170 180 -6 0 -10 4 -10 9 0 6 -13
18 -30 28 -16 9 -30 24 -30 32 0 17 -29 51 -44 51 -6 0 -19 9 -31 20 -11 10
-50 48 -87 83 -44 41 -68 71 -68 85 0 15 -6 22 -20 22 -10 0 -33 18 -51 40
-18 22 -39 40 -46 40 -10 0 -12 7 -8 19 4 14 -10 36 -58 85 -35 36 -68 66 -74
66 -5 0 -32 28 -58 63 -27 34 -52 64 -57 66 -5 1 -21 14 -35 27 -14 13 -37 24
-50 24 -22 0 -23 3 -17 40 6 36 4 40 -20 51 -14 7 -26 20 -26 29 0 14 -16 36
-88 123 -8 9 -11 17 -6 17 5 0 53 -42 106 -94z m13 -175 c8 -14 -13 -24 -33
-16 -14 5 -14 7 -2 15 19 12 27 12 35 1z m1470 -411 c6 -10 -95 -60 -122 -60
-29 0 -6 23 47 46 63 27 67 27 75 14z m0 -140 c-28 -12 -37 -12 -30 0 3 6 16
10 28 9 21 0 21 -1 2 -9z m-255 -170 c0 -13 -7 -20 -20 -20 -25 0 -26 16 -2
29 23 14 22 14 22 -9z m200 3 c0 -10 -58 -43 -75 -43 -7 0 -40 -20 -73 -45
-37 -28 -70 -45 -87 -45 -24 0 -26 2 -14 16 45 54 249 150 249 117z m-82 -533
c18 -7 42 -24 55 -39 35 -42 83 -71 116 -71 16 0 42 -5 56 -12 28 -12 34 -48
9 -48 -23 0 -97 22 -108 32 -6 4 -18 8 -28 8 -10 0 -18 4 -18 9 0 30 -99 97
-127 87 -21 -8 13 -63 52 -84 19 -9 25 -17 17 -20 -30 -10 -131 62 -132 94 0
7 7 14 14 17 8 3 18 23 22 43 7 36 7 36 23 17 9 -11 31 -26 49 -33z m1948 13
c-8 -8 -36 5 -36 17 0 7 6 7 21 0 11 -7 18 -14 15 -17z m-1761 -43 c0 -19 -35
-26 -46 -9 -4 7 -5 17 -2 22 8 14 48 3 48 -13z m974 -44 c13 -14 20 -29 16
-35 -9 -16 -168 -15 -163 2 3 6 19 13 37 15 18 2 37 12 44 23 16 26 39 24 66
-5z m826 -286 c3 -5 29 -10 56 -10 56 0 103 -20 119 -50 21 -39 -2 -39 -79 0
-44 22 -86 40 -94 40 -8 0 -17 7 -21 15 -6 17 9 21 19 5z m-5807 -2827 c2 -8
-6 -13 -22 -13 -25 0 -33 10 -19 24 10 10 36 3 41 -11z"/>
</g>
</svg>
