 <svg version="1.0" xmlns="http://www.w3.org/2000/svg" width="700.000000pt" height="513.000000pt" viewBox="0 0 700.000000 513.000000" preserveAspectRatio="xMidYMid meet">
<metadata>
Created by potrace 1.12, written by Peter Selinger 2001-2015
</metadata>
<g transform="translate(0.000000,513.000000) scale(0.100000,-0.100000)" fill="#000000" stroke="none">
<path d="M201 5089 c-41 -5 -86 -16 -100 -26 l-26 -17 55 -17 c30 -10 67 -18
81 -18 29 -1 201 -55 195 -62 -2 -2 11 -5 30 -6 19 -1 107 -30 196 -65 178
-70 222 -100 233 -161 12 -61 5 -67 -82 -69 l-78 -1 55 -8 c40 -5 23 -6 -63
-5 -70 1 -112 -1 -105 -7 8 -5 -6 -6 -34 -2 -51 7 -135 -5 -278 -40 -148 -36
-207 -55 -220 -70 -18 -22 59 -28 268 -23 l185 5 61 -27 c55 -26 166 -109 174
-131 2 -5 8 -7 13 -3 5 3 9 -2 9 -10 0 -9 9 -16 20 -16 11 0 20 -6 20 -13 0
-7 9 -32 20 -55 12 -24 18 -48 14 -54 -4 -6 -8 -22 -10 -34 -2 -19 1 -22 14
-15 10 5 35 11 57 15 l40 7 -27 -18 c-27 -17 -37 -33 -20 -33 5 0 16 6 26 13
18 13 66 12 66 -2 0 -3 -7 -15 -15 -25 -30 -40 -16 -45 41 -15 67 35 74 35 74
8 0 -15 4 -19 16 -15 12 5 15 2 9 -11 -20 -51 -20 -49 -2 -34 9 7 17 19 17 26
0 16 30 24 55 15 18 -7 18 -9 -7 -19 -16 -6 -28 -13 -28 -17 0 -3 7 -4 15 0
19 7 20 -8 1 -23 -8 -7 -13 -23 -11 -37 3 -29 15 -45 15 -21 0 10 5 17 10 17
15 0 11 -42 -5 -64 -21 -27 -20 -60 1 -52 12 5 15 2 10 -9 -3 -10 -2 -13 5 -9
6 3 22 -5 36 -17 24 -23 25 -23 15 -3 -15 29 -35 114 -33 143 1 32 31 66 42
49 6 -9 11 -9 23 1 14 12 16 10 16 -12 0 -14 -9 -46 -19 -70 -11 -25 -18 -60
-16 -79 2 -18 4 -48 4 -66 1 -36 19 -39 38 -7 7 13 8 26 1 38 -5 10 -8 28 -5
40 3 19 5 17 15 -13 l12 -35 -3 32 c-2 18 0 30 4 27 4 -2 9 2 12 8 3 7 4 -8 2
-34 -1 -26 2 -45 6 -42 5 3 9 12 9 20 0 8 5 12 11 8 6 -3 8 -15 6 -26 -7 -25
22 -108 39 -115 8 -3 14 -9 14 -14 0 -4 13 -31 30 -58 16 -28 34 -68 40 -90
11 -40 29 -64 31 -39 0 7 4 4 9 -7 8 -18 10 -17 21 13 16 38 29 42 29 9 0 -32
10 -40 26 -19 12 15 13 14 15 -13 1 -30 1 -30 9 -5 12 36 11 2 -1 -49 -13 -58
-6 -80 20 -57 9 9 21 13 24 9 4 -3 7 5 7 18 0 13 3 34 6 46 9 33 30 7 39 -48
8 -53 25 -109 39 -127 8 -11 11 -11 16 4 5 13 11 8 28 -25 12 -23 22 -50 22
-60 0 -10 6 -31 14 -47 8 -16 20 -58 27 -94 8 -36 17 -68 22 -71 5 -4 7 -11 3
-17 -3 -5 -3 -25 2 -43 7 -34 7 -33 13 16 5 36 6 27 4 -33 -2 -45 1 -84 5 -87
5 -3 12 -40 16 -83 5 -54 9 -69 14 -52 6 21 8 17 18 -28 7 -29 12 -61 13 -70
0 -14 2 -13 8 3 6 15 10 4 16 -40 7 -56 8 -58 20 -35 7 14 16 44 20 68 12 72
23 47 30 -70 7 -119 22 -199 34 -180 11 17 27 0 41 -43 22 -69 31 -85 27 -47
-6 51 11 37 18 -16 10 -70 17 -82 25 -44 4 18 10 35 12 38 3 2 15 -23 27 -56
25 -68 36 -78 27 -22 -4 23 -3 32 2 22 5 -8 12 -39 16 -68 4 -29 10 -60 13
-69 6 -15 7 -14 13 2 5 14 9 2 15 -35 5 -33 10 -46 12 -32 6 33 18 27 31 -16
6 -20 18 -46 26 -57 14 -19 15 -15 16 40 0 59 0 59 17 35 10 -14 24 -32 32
-42 21 -24 40 -86 47 -151 4 -31 11 -57 17 -57 5 0 7 16 4 38 -4 20 -2 44 3
52 7 11 10 6 11 -20 1 -19 0 -46 -1 -59 -1 -14 2 -21 9 -17 6 4 11 -9 13 -31
l4 -38 11 35 c8 25 11 29 12 14 1 -12 9 -40 19 -62 l18 -41 12 31 c6 17 9 36
6 42 -3 6 2 2 10 -8 9 -11 16 -28 16 -39 0 -10 4 -16 9 -13 13 9 38 -35 48
-85 l9 -44 18 27 c12 18 15 34 10 45 -6 14 -9 10 -12 -17 l-4 -35 -14 50 c-7
28 -13 63 -14 78 0 26 2 28 37 25 45 -4 53 -25 54 -145 0 -46 4 -83 8 -83 10
0 21 84 21 157 0 52 13 77 24 47 3 -8 10 -12 16 -9 6 3 13 -1 16 -9 4 -11 14
-14 30 -10 13 3 24 2 24 -4 0 -11 37 -25 62 -23 9 1 20 -3 24 -10 4 -8 11 -4
20 12 12 23 13 23 20 4 16 -41 28 -44 42 -11 10 24 15 28 22 16 8 -13 10 -12
10 2 0 26 19 32 40 13 14 -13 19 -13 23 -3 4 10 8 10 16 -2 6 -8 11 -10 11 -5
0 6 7 1 16 -10 15 -20 15 -20 20 1 3 11 14 25 25 32 16 11 22 8 42 -25 39 -63
43 -83 88 -423 6 -41 17 -85 25 -97 21 -34 18 -46 -31 -110 -36 -46 -176 -244
-258 -367 -15 -22 -70 -97 -111 -150 -16 -22 -24 -36 -18 -32 7 4 10 2 7 -6
-3 -7 -15 -18 -28 -23 -12 -6 -29 -24 -37 -40 -22 -45 -109 -122 -119 -106 -6
9 -10 6 -14 -9 -4 -16 -11 -21 -22 -16 -9 3 -13 2 -10 -3 3 -5 1 -12 -5 -16
-15 -9 -12 26 4 44 8 9 18 28 21 44 7 25 5 27 -21 26 -55 -2 -75 -13 -93 -52
-10 -20 -20 -34 -24 -31 -4 4 2 21 13 39 20 32 18 45 -7 45 -7 0 -13 -11 -13
-24 0 -25 -12 -40 -24 -29 -3 3 -1 12 5 20 17 19 -61 18 -87 -2 -18 -15 -17
-16 13 -10 38 7 47 -4 37 -48 -6 -30 -7 -31 -15 -9 -7 19 -16 22 -59 22 -37 0
-57 -5 -72 -20 -14 -12 -25 -17 -31 -11 -5 5 -16 7 -23 4 -17 -6 -18 -50 -2
-55 7 -3 2 -7 -11 -11 -22 -5 -23 -3 -18 28 6 37 -4 45 -51 45 -41 -1 -114
-42 -123 -70 -8 -23 -6 -22 19 7 25 29 33 32 76 29 49 -3 69 -18 61 -47 -10
-32 19 -52 84 -57 57 -4 61 -3 70 19 6 16 10 18 10 8 1 -9 8 -19 16 -23 11 -4
15 2 15 27 0 18 5 39 11 47 7 11 8 4 4 -26 l-6 -42 40 -4 c34 -3 41 0 44 17 3
14 5 12 6 -7 1 -31 -3 -30 134 -28 96 2 107 5 107 36 0 13 6 24 13 24 7 0 26
14 43 31 28 30 30 31 98 24 38 -3 80 -11 94 -16 15 -6 62 -11 105 -13 78 -2
96 -10 97 -43 0 -9 18 -13 55 -13 47 0 55 3 55 18 0 10 3 22 8 26 4 4 7 24 7
44 0 31 4 38 28 46 24 9 31 7 43 -8 7 -10 15 -23 16 -28 2 -5 19 -11 38 -14
70 -9 81 -15 94 -46 8 -18 16 -26 20 -20 4 6 -2 30 -14 54 -25 52 -27 133 -4
142 55 21 113 -2 172 -70 38 -43 41 -44 33 -16 -14 47 -41 82 -82 102 -21 11
-40 24 -44 30 -18 29 -132 -6 -121 -38 4 -9 -3 -6 -14 8 -11 14 -20 19 -20 12
0 -7 -5 -10 -10 -7 -6 4 -16 2 -23 -3 -29 -23 -209 21 -231 57 -14 22 140 327
269 531 54 87 83 126 132 182 29 32 53 60 53 63 0 2 11 55 25 119 l25 116 -34
102 c-18 57 -36 136 -40 176 -6 70 -6 72 14 62 11 -6 24 -19 30 -30 15 -29 30
-25 30 8 0 26 2 27 48 27 27 0 56 -6 64 -13 13 -10 17 -10 22 4 4 11 13 14 28
11 13 -4 26 0 32 9 10 12 14 12 36 -3 19 -13 41 -17 92 -14 115 5 138 -3 176
-60 17 -27 38 -49 46 -49 20 0 141 -141 163 -190 3 -8 27 -37 51 -65 25 -27
51 -63 58 -80 7 -16 21 -39 31 -51 23 -25 35 -46 68 -109 14 -27 32 -61 40
-75 8 -14 15 -43 15 -65 0 -22 10 -58 21 -80 12 -22 25 -51 28 -64 6 -22 8
-23 24 -7 23 23 15 93 -18 171 -19 43 -48 214 -43 255 3 30 6 35 27 32 23 -4
137 -97 248 -203 29 -28 64 -52 82 -55 17 -4 36 -13 42 -20 6 -8 17 -14 24
-14 7 0 18 -7 25 -15 15 -18 30 -20 30 -3 0 11 -19 43 -71 119 -10 15 -18 35
-18 45 0 11 -3 33 -6 49 l-7 30 27 -32 c14 -18 35 -33 45 -33 21 0 60 -45 60
-69 0 -9 22 -43 48 -76 48 -59 55 -72 102 -169 14 -27 46 -76 73 -110 53 -66
77 -107 77 -130 0 -8 6 -16 13 -18 28 -7 104 -105 117 -153 8 -28 20 -50 30
-52 9 -2 24 -20 35 -39 10 -19 24 -34 31 -34 7 0 15 -14 19 -30 4 -17 11 -28
16 -24 5 3 9 -1 9 -9 0 -8 13 -28 28 -45 38 -40 104 -51 157 -26 l37 17 32
-35 c45 -51 104 -71 164 -57 98 24 120 53 87 115 -8 16 -15 36 -15 44 0 8 -9
21 -20 28 -11 7 -20 17 -20 22 0 5 -18 33 -41 62 -129 168 -179 240 -179 260
0 6 -15 27 -33 47 -18 20 -76 97 -129 172 -118 164 -143 219 -95 205 12 -4 49
-11 82 -16 42 -6 103 -30 200 -79 77 -38 187 -93 245 -121 58 -28 116 -62 131
-76 26 -25 49 -31 49 -14 0 6 -29 38 -65 73 -36 35 -65 68 -65 74 0 6 -13 16
-30 23 -26 11 -30 18 -30 50 0 26 -8 48 -28 71 -46 57 -163 168 -183 174 -17
6 -36 38 -53 88 -3 9 -14 17 -25 17 -25 0 -69 41 -64 58 3 7 1 12 -4 11 -4 -1
-15 -1 -24 0 -20 1 -20 38 1 51 11 7 11 10 2 10 -7 0 -10 5 -6 11 3 6 -7 29
-23 52 -49 68 -30 75 86 33 24 -9 56 -16 70 -16 44 0 123 -47 154 -91 15 -22
31 -37 36 -34 5 3 30 -11 55 -30 26 -19 49 -35 52 -35 3 0 36 -26 72 -58 86
-75 168 -135 186 -138 26 -4 25 22 -3 52 -43 45 -27 60 25 23 24 -18 52 -40
63 -50 21 -20 36 -25 27 -10 -3 5 3 11 14 14 11 3 20 0 20 -6 0 -6 3 -7 6 -4
10 10 -18 39 -32 33 -7 -3 -11 0 -8 7 2 7 -27 37 -67 67 -41 31 -103 94 -146
147 -41 51 -79 93 -83 93 -5 0 -30 18 -56 41 -26 22 -57 45 -68 50 -35 16
-152 96 -330 226 -94 69 -141 97 -190 113 -31 10 -36 16 -36 43 0 18 -3 49 -7
71 -6 36 -5 38 15 27 11 -6 30 -11 41 -11 29 0 204 -85 237 -115 31 -29 46
-31 63 -11 20 24 -3 51 -89 106 -43 28 -82 59 -84 68 -4 12 -25 21 -66 29 -50
9 -68 18 -100 52 -22 23 -40 47 -41 54 0 6 -25 28 -55 47 -67 44 -202 161
-203 177 -1 6 -16 21 -35 32 -52 32 -63 79 -12 52 13 -8 30 -11 37 -9 20 7
-84 81 -177 127 -82 40 -94 53 -94 109 0 19 4 22 28 16 15 -4 50 -20 78 -36
28 -15 54 -28 59 -28 10 0 -107 89 -117 90 -16 0 -117 78 -148 114 -19 21 -98
80 -175 131 -168 110 -177 115 -209 115 -14 0 -45 13 -68 29 -24 16 -46 27
-50 25 -4 -3 -14 9 -22 25 -9 16 -26 33 -38 36 -25 9 -118 74 -118 83 0 4 -21
17 -47 29 -52 24 -255 217 -429 407 -54 59 -111 114 -126 122 -15 8 -29 22
-32 31 -3 10 -22 27 -43 38 -37 20 -55 45 -32 45 6 0 34 -13 60 -30 66 -41 62
-20 -7 34 -82 64 -207 124 -284 137 -36 6 -85 20 -109 30 -24 11 -55 19 -69
17 -14 -2 -27 2 -29 8 -4 11 41 26 122 40 36 7 37 8 15 14 -14 3 -42 14 -62
23 -21 9 -44 17 -52 17 -8 0 -17 4 -20 9 -5 8 -87 34 -112 36 -6 0 -18 5 -25
12 -8 6 -31 14 -51 18 -21 4 -35 11 -33 16 3 5 -7 11 -22 14 -15 3 -49 13 -76
21 -26 9 -54 13 -62 10 -8 -3 -15 -1 -15 4 0 4 -13 11 -30 15 -42 9 -47 25 -8
26 l33 1 -31 13 c-17 8 -69 17 -115 20 -46 4 -87 9 -92 12 -15 9 4 20 30 17
17 -2 20 -1 8 2 -11 4 -27 12 -35 19 -8 7 -35 16 -60 19 -25 4 -70 20 -100 36
-30 16 -75 38 -99 49 -24 12 -55 30 -70 40 -22 16 -110 54 -366 158 -33 13
-82 39 -110 58 -118 80 -394 138 -665 139 -163 1 -213 -4 -327 -34 -27 -6 -33
-5 -33 7 0 10 -6 13 -16 9 -9 -3 -22 -6 -30 -6 -9 0 -13 -4 -10 -8 5 -9 -176
11 -290 32 -106 20 -290 27 -383 15z m2494 -509 c3 -5 -1 -10 -9 -10 -8 0 -18
5 -21 10 -3 6 1 10 9 10 8 0 18 -4 21 -10z m188 -127 c-7 -2 -19 -2 -25 0 -7
3 -2 5 12 5 14 0 19 -2 13 -5z m152 -103 c8 -13 -25 -13 -45 0 -12 8 -9 10 12
10 15 0 30 -4 33 -10z m-318 -56 c-3 -3 -12 -4 -19 -1 -8 3 -5 6 6 6 11 1 17
-2 13 -5z m138 -34 c3 -6 -1 -7 -9 -4 -18 7 -21 14 -7 14 6 0 13 -4 16 -10z
m489 -26 c23 -9 20 -23 -4 -17 -11 3 -20 9 -20 14 0 11 3 11 24 3z m-494 -29
c13 -14 21 -25 18 -25 -2 0 -15 11 -28 25 -13 14 -21 25 -18 25 2 0 15 -11 28
-25z m210 -175 c0 -5 -4 -10 -10 -10 -5 0 -10 5 -10 10 0 6 5 10 10 10 6 0 10
-4 10 -10z m532 -50 c20 -15 45 -60 34 -60 -2 0 -19 18 -40 40 -39 42 -36 53
6 20z m-101 -47 c13 -16 12 -17 -3 -4 -17 13 -22 21 -14 21 2 0 10 -8 17 -17z
m-2144 -25 c-3 -7 -5 -2 -5 12 0 14 2 19 5 13 2 -7 2 -19 0 -25z m-37 18 c0
-3 -4 -8 -10 -11 -5 -3 -10 -1 -10 4 0 6 5 11 10 11 6 0 10 -2 10 -4z m2454
-12 c8 -3 32 -27 53 -52 l38 -47 -40 31 c-42 34 -82 74 -72 74 3 0 12 -3 21
-6z m-1667 -1536 c-3 -7 -5 -2 -5 12 0 14 2 19 5 13 2 -7 2 -19 0 -25z m3743
-325 c0 -22 -48 -14 -64 9 -24 34 -20 38 24 20 22 -9 40 -23 40 -29z m-2454
-1443 c-25 -39 -46 -74 -46 -78 0 -4 -23 -41 -50 -81 -28 -41 -50 -82 -50 -90
0 -8 -3 -11 -7 -8 -3 4 -15 -8 -27 -26 -17 -27 -21 -29 -24 -13 -2 10 0 21 5
25 10 7 30 39 42 67 10 23 155 239 179 267 33 38 21 5 -22 -63z m2721 -295 c7
-14 6 -27 -2 -43 -12 -22 -13 -22 -42 25 -17 26 -33 62 -36 79 l-6 32 38 -37
c21 -20 43 -45 48 -56z m-2767 -101 c0 -16 -9 -17 -29 -5 -8 5 -11 16 -7 26 5
14 9 15 21 5 8 -7 15 -19 15 -26z m155 -39 l6 -30 -20 35 c-24 41 -27 60 -7
40 8 -8 17 -28 21 -45z m115 34 c0 -6 -4 -7 -10 -4 -5 3 -10 11 -10 16 0 6 5
7 10 4 6 -3 10 -11 10 -16z m-193 -11 c-3 -8 -6 -5 -6 6 -1 11 2 17 5 13 3 -3
4 -12 1 -19z m255 -13 c12 -16 9 -28 -4 -17 -7 6 -17 10 -23 9 -5 -1 -12 9
-13 23 -4 22 -2 23 15 10 10 -8 21 -19 25 -25z m-885 -27 c-3 -8 -6 -5 -6 6
-1 11 2 17 5 13 3 -3 4 -12 1 -19z m-67 -50 c0 -38 -5 -34 -13 10 -4 21 -3 31
3 27 6 -3 10 -20 10 -37z"></path>
<path d="M1043 4080 c-25 -10 -48 -49 -57 -100 -7 -33 -6 -34 9 -16 8 11 15
28 15 37 0 10 6 22 14 26 8 4 16 15 18 23 2 8 10 20 18 27 18 14 13 15 -17 3z"></path>
<path d="M1111 3964 c-12 -15 -21 -32 -21 -38 1 -11 24 15 41 47 14 25 3 21
-20 -9z"></path>
<path d="M1227 3983 c-4 -3 -7 -11 -7 -17 0 -6 5 -5 12 2 6 6 9 14 7 17 -3 3
-9 2 -12 -2z"></path>
<path d="M2878 245 c-3 -14 -2 -25 2 -25 14 0 32 29 25 40 -11 17 -22 11 -27
-15z"></path>
<path d="M2922 250 c0 -14 2 -19 5 -12 2 6 2 18 0 25 -3 6 -5 1 -5 -13z"></path>
</g>
</svg>